<?xml version="1.0" encoding="utf-8"?>
<!-- Generator: Adobe Illustrator 22.1.0, SVG Export Plug-In . SVG Version: 6.00 Build 0)  -->
<svg version="1.1" id="Layer_1" xmlns="http://www.w3.org/2000/svg" xmlns:xlink="http://www.w3.org/1999/xlink" x="0px" y="0px"
	 viewBox="0 0 500 500" style="enable-background:new 0 0 500 500;" xml:space="preserve">
<style type="text/css">
	.st0{fill:#29D6C5;}
	.st1{fill-rule:evenodd;clip-rule:evenodd;fill:#EF5160;}
	.st2{fill-rule:evenodd;clip-rule:evenodd;fill:#D74956;}
	.st3{fill-rule:evenodd;clip-rule:evenodd;fill:#195E8A;}
	.st4{fill-rule:evenodd;clip-rule:evenodd;fill:#154D70;}
	.st5{fill-rule:evenodd;clip-rule:evenodd;fill:#60BB4D;}
	.st6{fill:#335579;}
	.st7{fill-rule:evenodd;clip-rule:evenodd;fill:#FFFFFF;}
	.st8{fill-rule:evenodd;clip-rule:evenodd;fill:#F8F8F8;}
	.st9{fill-rule:evenodd;clip-rule:evenodd;fill:#AF3B45;}
	.st10{fill-rule:evenodd;clip-rule:evenodd;fill:#E6E6E6;}
</style>
<rect x="0.3" class="st0" width="500" height="500"/>
<g id="Consulting_2_">
	<g id="Emoticon">
		<path class="st1" d="M330.8,321c30.9,0,55.9,25.1,55.9,55.9c0,30.9-25.1,55.9-55.9,55.9c-30.9,0-56-25-56-55.9
			C274.8,346.1,299.9,321,330.8,321L330.8,321z M308.5,348.7c3.9,0,7,3.1,7,7c0,3.9-3.1,7-7,7c-3.9,0-7-3.1-7-7
			C301.5,351.8,304.6,348.7,308.5,348.7L308.5,348.7z M353.1,348.7c3.9,0,7,3.1,7,7c0,3.9-3.1,7-7,7c-3.9,0-7-3.1-7-7
			C346.1,351.8,349.3,348.7,353.1,348.7L353.1,348.7z M376.1,383.1c-1.3,23.9-21,42.9-45.3,42.9c-24.3,0-44-19-45.3-42.9H376.1z"/>
		<path class="st2" d="M330.8,321c30.9,0,55.9,25.1,55.9,55.9c0,30.9-25.1,55.9-55.9,55.9v-6.8c24.2,0,44-19,45.3-42.9h-45.3V321z
			 M353.1,348.7c3.9,0,7,3.1,7,7c0,3.9-3.1,7-7,7c-3.9,0-7-3.1-7-7C346.1,351.8,349.3,348.7,353.1,348.7L353.1,348.7z"/>
		<path class="st3" d="M216.7,336.1c23.7,0,42.9,19.2,42.9,42.9c0,23.7-19.2,43-42.9,43c-23.7,0-43-19.2-43-43
			C173.7,355.3,193,336.1,216.7,336.1L216.7,336.1z M199.6,357.3c3,0,5.4,2.4,5.4,5.4c0,3-2.4,5.4-5.4,5.4c-3,0-5.4-2.4-5.4-5.4
			C194.2,359.7,196.6,357.3,199.6,357.3L199.6,357.3z M233.8,357.3c3,0,5.4,2.4,5.4,5.4c0,3-2.4,5.4-5.4,5.4c-3,0-5.4-2.4-5.4-5.4
			C228.4,359.7,230.8,357.3,233.8,357.3L233.8,357.3z M248.9,381.1c0.1-1.4,1.3-2.5,2.7-2.4c1.4,0.1,2.5,1.3,2.4,2.7
			c-0.5,9.9-4.9,18.8-11.6,25.2c-6.7,6.3-15.8,10.2-25.7,10.2c-10,0-19-3.9-25.7-10.2c-6.7-6.4-11.1-15.3-11.6-25.2
			c-0.1-1.4,1-2.6,2.4-2.7c1.4-0.1,2.6,1,2.7,2.4c0.4,8.5,4.2,16.2,10,21.7c5.8,5.5,13.6,8.8,22.2,8.8c8.6,0,16.4-3.4,22.2-8.8
			C244.7,397.3,248.4,389.7,248.9,381.1L248.9,381.1z"/>
		<path class="st4" d="M216.7,336.1c23.7,0,42.9,19.2,42.9,42.9c0,23.7-19.2,43-42.9,43v-5.1c9.9,0,19-3.9,25.7-10.2
			c6.7-6.4,11.1-15.3,11.6-25.2c0.1-1.4-1-2.6-2.4-2.7c-1.4-0.1-2.6,1-2.7,2.4c-0.5,8.5-4.2,16.2-10,21.7
			c-5.8,5.5-13.6,8.8-22.2,8.8V336.1z M233.8,357.3c3,0,5.4,2.4,5.4,5.4c0,3-2.4,5.4-5.4,5.4c-3,0-5.4-2.4-5.4-5.4
			C228.4,359.7,230.8,357.3,233.8,357.3L233.8,357.3z"/>
	</g>
	<g id="World">
		<path class="st5" d="M271.4,237.5c39.1,0,71-31.9,71-71c0-39.1-31.9-71-71-71c-39.1,0-71,31.9-71,71
			C200.4,205.6,232.3,237.5,271.4,237.5L271.4,237.5z"/>
		<path class="st6" d="M197.8,210.7h13.3c-5.1-13-8-27.9-8-43.6h-17.5C185.7,183,190.1,197.9,197.8,210.7L197.8,210.7z M185.8,159.3
			h17.4c0.8-13.9,3.8-27,8.5-38.6h-13C191.6,132,187,145.2,185.8,159.3L185.8,159.3z M204.3,113h11c2.2-4.3,4.7-8.4,7.4-12.2
			c2.7-3.8,5.7-7.2,8.8-10.3c-7.7,4-14.7,9.2-20.8,15.3C208.4,108,206.3,110.5,204.3,113L204.3,113z M311.3,90.5
			c3.1,3.1,6.1,6.6,8.8,10.3c2.7,3.8,5.2,7.8,7.4,12.2h11c-2-2.5-4.1-4.9-6.4-7.2C326,99.7,319,94.5,311.3,90.5L311.3,90.5z
			 M344,120.7h-13c4.7,11.6,7.7,24.6,8.5,38.6H357C355.8,145.2,351.2,132,344,120.7L344,120.7z M357.3,167h-17.5
			c-0.1,15.7-3,30.6-8,43.6H345C352.7,197.9,357.2,183,357.3,167L357.3,167z M351.7,214.6l-2.3,3.8c-3.4,5.1-7.4,9.9-11.7,14.3
			c-16.9,17-40.4,27.4-66.2,27.4c-25.9,0-49.3-10.5-66.2-27.4c-16.9-16.9-27.4-40.3-27.4-66.2c0-25.8,10.5-49.2,27.4-66.2
			c16.9-16.9,40.3-27.4,66.2-27.4c25.8,0,49.3,10.5,66.2,27.4c16.9,17,27.4,40.4,27.4,66.2C365,184.1,360.1,200.6,351.7,214.6
			L351.7,214.6z M339.8,218.4h-11.5c-2.4,4.9-5.1,9.6-8.2,13.8c-2.7,3.8-5.7,7.2-8.8,10.3c7.7-4,14.7-9.2,20.8-15.3
			C334.9,224.4,337.4,221.5,339.8,218.4L339.8,218.4z M231.5,242.5c-3.1-3.1-6.1-6.6-8.8-10.3c-3-4.2-5.8-8.8-8.2-13.8H203
			c2.3,3.1,4.9,6,7.7,8.8C216.8,233.3,223.8,238.5,231.5,242.5L231.5,242.5z M219.5,210.7h28c-1.8-13-2.9-27.9-2.9-43.6h-33.7
			C210.9,183,214,197.9,219.5,210.7L219.5,210.7z M211,159.3h33.6c0.3-14,1.4-27.1,3.1-38.6h-27.6C215.1,132,211.8,145.2,211,159.3
			L211,159.3z M224,113h25c0.7-3.9,1.5-7.5,2.4-10.9c2.1-8,4.6-14.7,7.5-19.6c-11.5,3.4-21.8,11.5-30,22.8
			C227.2,107.7,225.6,110.3,224,113L224,113z M283.9,82.5c2.9,4.9,5.4,11.6,7.5,19.6c0.9,3.4,1.7,7,2.4,10.9h25
			c-1.5-2.7-3.1-5.2-4.9-7.6C305.7,94,295.4,85.9,283.9,82.5L283.9,82.5z M322.6,120.7h-27.6c1.7,11.5,2.8,24.6,3.1,38.6h33.6
			C331,145.2,327.7,132,322.6,120.7L322.6,120.7z M332,167h-33.7c0,15.8-1.1,30.7-3,43.6h28C328.8,197.9,331.9,183,332,167L332,167z
			 M319.7,218.4h-25.6c-0.8,4.5-1.7,8.6-2.7,12.5c-2.1,8-4.6,14.7-7.5,19.6c11.5-3.4,21.8-11.5,30-22.8
			C315.9,224.8,317.9,221.7,319.7,218.4L319.7,218.4z M258.9,250.5c-2.9-4.9-5.4-11.6-7.5-19.6c-1-3.9-1.9-8-2.7-12.5h-25.6
			c1.8,3.3,3.7,6.4,5.8,9.3C237.1,239,247.4,247.1,258.9,250.5L258.9,250.5z M255.3,210.7h32.3c1.9-12.8,3-27.7,3-43.6h-38.2
			C252.3,182.9,253.4,197.8,255.3,210.7L255.3,210.7z M286.2,218.4h-29.7c0.7,3.8,1.5,7.3,2.3,10.6c3.7,14.4,8.2,23.4,12.5,23.4
			c4.4,0,8.8-8.9,12.5-23.4C284.8,225.7,285.5,222.2,286.2,218.4L286.2,218.4z M283.9,104c-3.7-14.4-8.2-23.4-12.5-23.4
			c-4.4,0-8.8,8.9-12.5,23.4c-0.7,2.8-1.4,5.8-2,9h29C285.3,109.8,284.6,106.8,283.9,104L283.9,104z M255.5,120.7
			c-1.8,11.4-2.9,24.5-3.2,38.6h38.1c-0.3-14.1-1.4-27.2-3.2-38.6H255.5z"/>
		<path class="st7" d="M276.6,112.2h36.3c3.3,0,6,2.7,6,6.1l0,0c0,3.3-2.7,6-6,6h-1.1c0.7,1.1,1.1,2.4,1.1,3.8l0,0
			c0,0.6-0.1,1.1-0.2,1.6h13.9c4.2,0,7.7,3.5,7.7,7.7l0,0c0,4.2-3.5,7.7-7.7,7.7h-16.8c0.5,1,0.8,2.1,0.8,3.3l0,0
			c0,4-3.2,7.2-7.2,7.2h-40.4c-4,0-7.2-3.2-7.2-7.2l0,0c0-3.9,3.2-7.1,7.2-7.1h6c-0.6-1.1-1-2.4-1-3.9l0,0c0-0.8,0.1-1.5,0.3-2.2
			h-7.8c-4,0-7.2-3.2-7.2-7.2l0,0c0-3.9,3.2-7.1,7.2-7.1h10.5c-0.4-0.8-0.6-1.8-0.6-2.7l0,0C270.5,115,273.2,112.2,276.6,112.2
			L276.6,112.2z"/>
		<path class="st7" d="M194.7,154.2h35.1c4.5,0,8.2,3.7,8.2,8.2l0,0c0,4.5-3.7,8.1-8.2,8.1H223c0.3,0.8,0.4,1.7,0.4,2.6l0,0
			c0,0.9-0.2,1.8-0.5,2.7h4.1c3,0,5.5,2.5,5.5,5.5l0,0c0,3-2.5,5.5-5.5,5.5h-23.6c-3,0-5.5-2.5-5.5-5.5h-17.9
			c-4.5,0-8.2-3.7-8.2-8.2l0,0c0-4.5,3.7-8.1,8.2-8.1h6.8c-0.3-0.8-0.4-1.7-0.4-2.6l0,0C186.6,157.8,190.3,154.2,194.7,154.2
			L194.7,154.2z"/>
		<path class="st7" d="M334.8,185h15.5c3,0,5.5,2.4,5.5,5.5l0,0c0,3-2.5,5.5-5.5,5.5h-4.6c0.2,0.5,0.3,1.1,0.3,1.7l0,0
			c0,0.6-0.1,1.2-0.3,1.8h2.8c2,0,3.7,1.6,3.7,3.7l0,0c0,2-1.7,3.7-3.7,3.7h-15.9c-2,0-3.7-1.7-3.7-3.7h-0.2l0,0
			c0,3-2.5,5.5-5.5,5.5h-4.6c0.2,0.5,0.3,1.1,0.3,1.7l0,0c0,0.6-0.1,1.2-0.3,1.8h2.8c2,0,3.7,1.7,3.7,3.7l0,0c0,2-1.6,3.7-3.7,3.7
			h-15.9c-2,0-3.7-1.6-3.7-3.7h-12c-3,0-5.5-2.5-5.5-5.5l0,0c0-3,2.5-5.5,5.5-5.5h4.6c-0.2-0.5-0.3-1.1-0.3-1.7l0,0
			c0-3,2.5-5.5,5.5-5.5h11.8c0-0.9,0.2-1.7,0.6-2.4c-0.6-0.7-1-1.5-1-2.5h-12c-3,0-5.5-2.5-5.5-5.5l0,0c0-3,2.4-5.5,5.5-5.5h4.6
			c-0.2-0.5-0.3-1.1-0.3-1.7l0,0c0-3,2.5-5.5,5.5-5.5h23.6c3,0,5.5,2.5,5.5,5.5l0,0C337.8,182.2,336.6,184.1,334.8,185L334.8,185z"
			/>
	</g>
	<g id="Chat">
		<path class="st8" d="M289,228.8h113.5c10.2,0,18.6,8.4,18.6,18.6v40.9c0,10.3-8.4,18.6-18.6,18.6h-8.8l-26.2,42.4l-1.4-42.4H289
			c-10.2,0-18.6-8.4-18.6-18.6v-40.9C270.4,237.2,278.8,228.8,289,228.8L289,228.8z"/>
		<path class="st8" d="M240.8,276.6h-94c-8.5,0-15.4,6.9-15.4,15.4v33.9c0,8.4,6.9,15.4,15.4,15.4h7.3l29.6,22.2l-4-22.2h61.2
			c8.4,0,15.4-6.9,15.4-15.4V292C256.2,283.6,249.2,276.6,240.8,276.6L240.8,276.6z"/>
		<path class="st1" d="M397.7,253.8c0.8,0.8,1.9,1.3,3.2,1.3c2,0,4.4-1.6,4.4-4.4c0-0.9-0.3-1.7-1.1-3c-1.1-1.6-1.9-2.8-1.9-5.3
			c0-11,27.6-13.3,27.6-36.9c0-14.5-9.9-22.6-26.5-22.6c-16.5,0-26,9.1-26,24c0,2.4,2,4.4,4.4,4.4c2.4,0,4.4-2,4.4-4.4
			c0-11,6.7-16.1,17.2-16.1c11.1,0,17.9,4.8,17.9,14.7c0,19.8-28,19.4-28,36.9C393.4,246,394.5,250.6,397.7,253.8L397.7,253.8z
			 M400.4,276c3.9,0,6.3-1.9,6.3-6.3c0-4.4-2.4-6.4-6.3-6.4c-3.9,0-6.3,2-6.3,6.4C394.1,274.2,396.5,276,400.4,276L400.4,276z"/>
		<path class="st3" d="M114.9,316.4c3.9,0,6.3-1.9,6.3-6.3c0-4.4-2.4-6.4-6.3-6.4c-3.9,0-6.3,2-6.3,6.4
			C108.6,314.5,111,316.4,114.9,316.4L114.9,316.4z M151.2,316.4c3.9,0,6.3-1.9,6.3-6.3c0-4.4-2.4-6.4-6.3-6.4c-3.9,0-6.3,2-6.3,6.4
			C144.9,314.5,147.3,316.4,151.2,316.4L151.2,316.4z M187.6,316.4c3.9,0,6.3-1.9,6.3-6.3c0-4.4-2.4-6.4-6.3-6.4
			c-3.9,0-6.3,2-6.3,6.4C181.3,314.5,183.8,316.4,187.6,316.4L187.6,316.4z"/>
	</g>
	<g id="Mail">
		<rect x="74.8" y="188.4" class="st1" width="137.5" height="79.8"/>
		<polygon class="st9" points="143.6,188.4 74.8,188.4 143.6,228.3 212.3,188.4 		"/>
		<polygon class="st2" points="143.6,188.4 74.8,188.4 143.6,148.5 212.3,188.4 		"/>
		<polygon class="st10" points="184.9,216.6 189.1,221.1 195,219.3 196.3,225.3 202.3,226.6 200.4,232.4 205,236.7 200.5,240.8 
			202.3,246.6 196.3,248 195,254 189.2,252.1 184.9,256.7 180.8,252.2 175,254 173.6,248 167.6,246.6 169.5,240.8 164.9,236.7 
			169.4,232.5 167.6,226.6 173.6,225.3 175,219.3 180.8,221.2 		"/>
		<path class="st1" d="M186,240.4c-0.4,0.5-0.9,0.9-1.4,1.2c-0.5,0.3-1.1,0.4-1.6,0.4c-0.6,0-1.2-0.2-1.8-0.5
			c-0.5-0.4-1-0.9-1.3-1.6c-0.4-0.7-0.5-1.5-0.5-2.4c0-1.1,0.3-2.2,0.8-3.2c0.5-1.1,1.2-1.9,2-2.4c0.8-0.5,1.6-0.8,2.4-0.8
			c0.6,0,1.2,0.2,1.7,0.5c0.5,0.3,1,0.8,1.4,1.4l0.4-1.6h1.8l-1.4,6.8c-0.2,1-0.3,1.5-0.3,1.6c0,0.2,0.1,0.4,0.2,0.5
			c0.1,0.1,0.3,0.2,0.5,0.2c0.4,0,0.8-0.2,1.4-0.6c0.8-0.5,1.4-1.3,1.8-2.2c0.4-0.9,0.7-1.8,0.7-2.8c0-1.1-0.3-2.2-0.9-3.1
			c-0.6-1-1.4-1.8-2.6-2.3c-1.1-0.6-2.4-0.9-3.8-0.9c-1.6,0-3,0.4-4.3,1.1c-1.3,0.7-2.3,1.8-3,3.2c-0.7,1.4-1.1,2.8-1.1,4.4
			c0,1.6,0.4,3.1,1.1,4.3c0.7,1.2,1.7,2.1,3.1,2.6c1.4,0.5,2.9,0.8,4.5,0.8c1.8,0,3.2-0.3,4.4-0.9c1.2-0.6,2.1-1.3,2.7-2.2h1.8
			c-0.4,0.7-0.9,1.4-1.8,2.2c-0.8,0.7-1.8,1.3-3,1.7c-1.2,0.4-2.5,0.6-4.1,0.6c-1.5,0-2.9-0.2-4.1-0.6c-1.3-0.4-2.3-0.9-3.2-1.7
			c-0.9-0.8-1.6-1.7-2-2.7c-0.5-1.3-0.8-2.6-0.8-4.1c0-1.6,0.3-3.2,1-4.7c0.8-1.8,2-3.2,3.5-4.2c1.5-1,3.3-1.4,5.5-1.4
			c1.7,0,3.2,0.4,4.5,1c1.3,0.7,2.4,1.7,3.1,3.1c0.7,1.2,1,2.4,1,3.8c0,1.9-0.7,3.7-2.1,5.2c-1.2,1.4-2.6,2.1-4,2.1
			c-0.5,0-0.8-0.1-1.1-0.2c-0.3-0.1-0.5-0.4-0.6-0.6C186.1,241.1,186.1,240.8,186,240.4L186,240.4z M181.1,237.6
			c0,0.9,0.2,1.6,0.6,2.2c0.5,0.5,1,0.8,1.5,0.8c0.4,0,0.8-0.1,1.2-0.4c0.4-0.2,0.8-0.5,1.2-1c0.4-0.4,0.7-1,0.9-1.7
			c0.2-0.7,0.4-1.4,0.4-2.1c0-0.9-0.2-1.6-0.7-2.1c-0.4-0.5-1-0.8-1.7-0.8c-0.4,0-0.8,0.1-1.2,0.4c-0.4,0.2-0.7,0.5-1.1,1.1
			c-0.4,0.5-0.6,1.1-0.9,1.8C181.2,236.4,181.1,237,181.1,237.6L181.1,237.6z"/>
	</g>
</g>
</svg>
