<?xml version="1.0" encoding="utf-8"?>
<!-- Generator: Adobe Illustrator 24.2.0, SVG Export Plug-In . SVG Version: 6.00 Build 0)  -->
<svg version="1.1" id="Layer_1" xmlns="http://www.w3.org/2000/svg" xmlns:xlink="http://www.w3.org/1999/xlink" x="0px" y="0px"
	 viewBox="0 0 4000 2000" style="enable-background:new 0 0 4000 2000;" xml:space="preserve">
<style type="text/css">
	.st0{fill:#07BED1;}
	.st1{fill:#00131E;}
	.st2{fill:#FFB600;}
	.st3{fill:#EDDCB2;}
	.st4{fill:#493100;}
	.st5{fill:#C5FFFF;}
	.st6{fill:#00DBFF;}
	.st7{fill:#00EDF9;}
	.st8{fill:#FFFFFF;}
	.st9{fill:#005290;}
	.st10{fill:#00AAFF;}
	.st11{fill:#008BE0;}
</style>
<g>
	<path class="st0" d="M878.1,1406.1c-26.5,65.6-54,113.4-81.1,147c-17.4-29.7-47.2-54.3-85.1-66.6c-48.3-15.7-97.7-7.7-132.1,17.4
		c-28.1-117.7,16.5-255.6,16.5-255.6S998.7,1108.6,878.1,1406.1z"/>
	<path class="st0" d="M1384.6,1509.4c-7.3-3.7-14.9-6.8-22.7-9.3c-74.3-24.2-151.3,8-172.1,71.8c-0.4,1.2-0.7,2.3-1.1,3.5
		c-33.4-33.3-67.9-87.5-101-169.2c-120.6-297.6,281.8-157.8,281.8-157.8S1415.4,1390.5,1384.6,1509.4z"/>
	<path class="st1" d="M512.8,886.2c0,0-143-148.2-122.2-280.6C214.1,698.8,49.8,811.3,13.7,940.1c104.6-60.1,158-2.9,153.2,59.7
		c32.7-26.5,109.3-86.3,143.8-16.8c37.1-30.4,80.1-117,184.8-52.5"/>
	<path class="st1" d="M1453,886.2c0,0,143-148.2,122.2-280.6c176.4,93.3,340.7,205.7,376.9,334.5c-104.7-60.1-158-2.9-153.2,59.7
		c-32.7-26.5-109.3-86.3-143.8-16.8c-37-30.4-80.1-116.9-184.8-52.5"/>
	<path class="st0" d="M910.4,783l-239.5,246.8c0,0-120.6,274.5-247.5,320c5.6-33.4,8.7-71.6,8.7-112.2c0-93.3-16.6-174.1-40.9-213
		c25.7-47.1,53.7-92.9,83.9-137.2c0,0,105.4-56.4,184.7-123.2S910.4,783,910.4,783z"/>
	<path class="st0" d="M1549.9,1237.5c0,42.5,3.5,82.4,9.5,116.9c-132.8-25.1-264.5-324.7-264.5-324.7L1055.4,783
		c0,0,171.2-85.6,250.5-18.8s184.7,123.2,184.7,123.2c33.5,49.1,64.2,99.9,92.1,152.4C1562.9,1082.4,1549.9,1155,1549.9,1237.5z"/>
	<path class="st2" d="M694.1,575.1c0,0-88.4-39.7-89.8-111.3s-1.4-82.1-27.8-80.7S445,449.9,475.6,619
		c27.1,146.1,202.5,152.4,202.5,152.4L694.1,575.1z"/>
	<path class="st2" d="M1271.7,575.1c0,0,88.4-39.7,89.8-111.3s1.4-82.1,27.8-80.7s131.5,66.8,100.9,235.9
		c-27.1,146.1-202.5,152.4-202.5,152.4L1271.7,575.1z"/>
	<path class="st3" d="M689.2,591.3c-2.8,0-89.8-46.6-93.9-115.5s-2.7-88.4-13.2-78.6s-22.3,71-4.2,126.6S654.4,624,654.4,624
		L689.2,591.3z"/>
	<path class="st3" d="M1281.6,591.3c2.8,0,89.8-46.6,93.9-115.5s2.7-88.4,13.2-78.6s22.3,71,4.2,126.6S1316.3,624,1316.3,624
		L1281.6,591.3z"/>
	<path class="st4" d="M1460.2,881.4c0,0,139.8-104.4,134.3-242.1c14.9,108.5,53.5,314.2,53.5,314.2s-67.8-86.3-164.9-50.4
		L1460.2,881.4z"/>
	<path class="st4" d="M504.2,881.4c0,0-139.9-104.4-134.3-242.1c-14.9,108.5-53.5,314.2-53.5,314.2s67.8-86.3,164.9-50.4
		L504.2,881.4z"/>
	<path class="st4" d="M365.4,639.3l-59.7,314.2c0,0-75.9-48-120.8,17.7C252.7,845.9,365.4,639.3,365.4,639.3z"/>
	<path class="st4" d="M174.4,971.2c0,0-29-127.4-144-50.1C52.3,886.6,94.8,776,360,639.3C238.1,842.8,174.4,971.2,174.4,971.2z"/>
	<path class="st4" d="M1599,639.3l59.8,314.2c0,0,75.9-48,120.8,17.7C1711.7,845.9,1599,639.3,1599,639.3z"/>
	<path class="st4" d="M1790,971.2c0,0,29-127.4,144-50.1c-21.9-34.4-64.4-145.1-329.7-281.8C1726.3,842.8,1790,971.2,1790,971.2z"/>
	<path class="st5" d="M1511.8,1011.2c0.2,110.9-34.7,219-99.6,308.9c-12,11-24.5,21.4-37.5,31.3c64.8-89.9,99.7-198,99.5-308.8
		c0-292.1-236.8-528.9-528.9-528.9c-115.5-0.2-227.8,37.6-319.7,107.5c0-0.1,0.1-0.1,0.1-0.2c97.4-89.4,224.9-139,357.1-138.8
		C1275,482.3,1511.8,719.1,1511.8,1011.2z"/>
	<path class="st6" d="M1412.2,1320.1c-96,133.3-252.6,220-429.3,220c-292.1,0-528.9-236.8-528.9-528.9
		c0-154.5,66.2-293.5,171.8-390.2c-64.9,89.9-99.8,198.1-99.6,309c0,292.1,236.8,528.9,528.9,528.9
		C1187.3,1459.1,1314.8,1409.6,1412.2,1320.1z"/>
	<path class="st7" d="M1474.2,1042.6c0.2,110.8-34.6,218.9-99.5,308.8c-91.9,69.9-204.2,107.6-319.6,107.4
		c-292.1,0-528.9-236.8-528.9-528.9c-0.2-110.8,34.6-218.9,99.4-308.8c91.9-69.9,204.2-107.7,319.7-107.5
		C1237.4,513.7,1474.2,750.5,1474.2,1042.6z"/>
	<circle class="st8" cx="729.2" cy="917.6" r="148"/>
	<circle class="st9" cx="729.2" cy="917.6" r="91"/>
	<circle class="st8" cx="755" cy="892.1" r="31.6"/>
	<circle class="st8" cx="1236.6" cy="917.6" r="148"/>
	<circle class="st9" cx="1236.6" cy="917.6" r="91"/>
	<circle class="st8" cx="1262.4" cy="892.1" r="31.6"/>
	<path class="st9" d="M1184.3,1255.6c-8,10.6-16.9,20.5-26.8,29.4c-9.6,8.7-19.9,16.6-30.9,23.6c-39.9,25.6-89.8,40.8-143.8,40.8
		S879,1334.3,839,1308.7c-10.9-7-21.3-14.9-30.9-23.6c-9.8-8.9-18.8-18.8-26.8-29.4c-9.8-13.1,7.7-26.3,26.2-24
		c3.3,0.4,6.5,1.3,9.6,2.7c21.3,9.7,43.5,17.3,66.3,22.7c65.4,15.4,133.6,15.4,199,0c22.8-5.4,45-13,66.3-22.7
		c3-1.4,6.3-2.3,9.6-2.7C1176.7,1229.3,1194.2,1242.5,1184.3,1255.6z"/>
	<path class="st8" d="M883.4,1257.1c-9.3,12.8-28.4,38.4-44.4,51.6c-7.2,5.9-13.7,9.3-18.5,8c-7.2-2.1-10.7-15.6-12.4-31.6
		c-2-19.5-1.2-42.7-0.6-53.4c3.3,0.4,6.5,1.3,9.6,2.7C838.4,1244.1,860.6,1251.7,883.4,1257.1z"/>
	<path class="st8" d="M1157.6,1285.1c-1.7,16-5.2,29.5-12.4,31.6c-4.8,1.4-11.3-2.1-18.5-8c-16-13.2-35-38.8-44.3-51.6
		c22.8-5.4,45-13,66.3-22.7c3-1.4,6.3-2.3,9.6-2.7C1158.8,1242.3,1159.6,1265.6,1157.6,1285.1z"/>
	<path class="st7" d="M873.3,516.3c0,0-30.8-64.8,0-54c22.1,7.8,45.7,39.3,47.1,33s-11.1-101.6,25-81.4s20.2,79.3,31.3,59.8
		s33.4-80.8,51.5-62.6s-13.9,75.2,0,65.4c13.9-9.8,65.4-38.3,76.5-9.7s-54.3,44.5-59.1,52.2S873.3,516.3,873.3,516.3z"/>
	<path class="st10" d="M1067.2,1336.5c-3.4,1.2-6.8,2.3-10.2,3.3c-22.6-26.8-90.2-61.2-156.2-2.6l0,0
		C972,1266,1047.3,1308.5,1067.2,1336.5z"/>
	<path class="st11" d="M1057,1339.8c-81,23.9-154.3-1.9-156.2-2.6C966.7,1278.6,1034.3,1313,1057,1339.8z"/>
	<path class="st6" d="M797,1553.1c-95.8,118.8-186.5,57.8-213.7-36c-1.3-4.4-2.4-8.8-3.5-13.2c34.4-25.1,83.8-33.1,132.1-17.4
		C749.8,1498.8,779.6,1523.5,797,1553.1z"/>
	<path class="st6" d="M1384.6,1509.4c-0.7,2.6-1.3,5.2-2.1,7.8c-25.4,87.3-105.6,146.1-193.8,58.3c0.3-1.2,0.7-2.3,1.1-3.5
		c20.8-63.9,97.9-96,172.1-71.8C1369.6,1502.6,1377.2,1505.7,1384.6,1509.4z"/>
	<path class="st6" d="M432.1,1237.5c0,40.6-3.1,78.8-8.7,112.2c-24,8.6-48.2,9-71.9-2.2c-90.4-42.8-25.3-203.5,39.8-323.1
		C415.4,1063.4,432.1,1144.2,432.1,1237.5z"/>
	<path class="st6" d="M1614.3,1347.6c-17.1,8.2-36.3,10.6-54.9,6.9c-6-34.5-9.5-74.4-9.5-116.9c0-82.5,13-155.2,32.8-197.8
		C1644.7,1157.3,1700.9,1306.6,1614.3,1347.6z"/>
	<ellipse class="st5" cx="378.4" cy="1246.1" rx="28.8" ry="55.8"/>
	<ellipse class="st5" cx="1594.5" cy="1246.1" rx="28.8" ry="55.8"/>
	
		<ellipse transform="matrix(0.8983 -0.4395 0.4395 0.8983 -553.1488 722.7134)" class="st5" cx="1284.3" cy="1556" rx="55.8" ry="28.8"/>
	
		<ellipse transform="matrix(0.4395 -0.8983 0.8983 0.4395 -1000.443 1486.2405)" class="st5" cx="690.6" cy="1544.7" rx="28.8" ry="55.8"/>
</g>
<g>
	<path class="st0" d="M2910.9,1405.8c-26.6,65.6-54.1,113.6-81.2,147.2c-17.4-29.7-47.3-54.4-85.2-66.7
		c-48.3-15.7-97.8-7.7-132.3,17.4c-28.1-117.9,16.5-256,16.5-256S3031.6,1107.8,2910.9,1405.8z"/>
	<path class="st0" d="M3418,1509.2c-7.3-3.7-15-6.8-22.8-9.3c-74.4-24.2-151.6,8-172.4,71.9c-0.4,1.2-0.7,2.3-1.1,3.5
		c-33.4-33.3-68-87.7-101.2-169.5c-120.8-298,282.2-158.1,282.2-158.1S3448.9,1390.2,3418,1509.2z"/>
	<path class="st1" d="M2545,885.1c0,0-143.2-148.4-122.4-281c-176.7,93.4-341.2,206-377.4,335c104.8-60.2,158.2-2.9,153.4,59.8
		c32.8-26.5,109.4-86.4,144-16.8c37.1-30.4,80.2-117.1,185.1-52.6"/>
	<path class="st1" d="M3486.5,885.1c0,0,143.2-148.4,122.4-281c176.7,93.4,341.2,206,377.4,335c-104.8-60.2-158.2-2.9-153.4,59.8
		c-32.8-26.5-109.4-86.4-144-16.8c-37.1-30.4-80.2-117.1-185.1-52.6"/>
	<path class="st0" d="M2943.1,781.8L2703.3,1029c0,0-120.8,274.9-247.8,320.4c5.6-33.5,8.7-71.7,8.7-112.4
		c0-93.5-16.7-174.4-40.9-213.3c42.1-77.3,84.1-137.4,84.1-137.4s105.6-56.5,185-123.3S2943.1,781.8,2943.1,781.8z"/>
	<path class="st0" d="M3583.6,1237c0,42.6,3.5,82.5,9.5,117.1c-133-25.1-264.9-325.1-264.9-325.1l-239.9-247.2
		c0,0,171.4-85.7,250.9-18.8s185,123.3,185,123.3c33.5,49.1,64.3,100.1,92.2,152.6C3596.6,1081.6,3583.6,1154.4,3583.6,1237z"/>
	<path class="st2" d="M2726.6,573.6c0,0-88.5-39.7-89.9-111.5s-1.4-82.2-27.9-80.8s-131.7,66.9-101,236.2
		c27.2,146.3,202.8,152.6,202.8,152.6L2726.6,573.6z"/>
	<path class="st2" d="M3304.9,573.6c0,0,88.5-39.7,89.9-111.5s1.4-82.2,27.9-80.8s131.7,66.9,101,236.2
		C3496.6,763.9,3321,770.1,3321,770.1L3304.9,573.6z"/>
	<path class="st3" d="M2721.7,589.8c-2.8,0-89.9-46.7-94.1-115.7s-2.7-88.5-13.2-78.7s-22.3,71.1-4.2,126.8s76.6,100.3,76.6,100.3
		L2721.7,589.8z"/>
	<path class="st3" d="M3314.9,589.8c2.8,0,89.9-46.7,94.1-115.7s2.7-88.5,13.2-78.7s22.3,71.1,4.2,126.8s-76.6,100.3-76.6,100.3
		L3314.9,589.8z"/>
	<path class="st4" d="M3493.7,880.3c0,0,140.1-104.5,134.5-242.5c14.9,108.7,53.6,314.6,53.6,314.6s-67.9-86.4-165.1-50.5
		L3493.7,880.3z"/>
	<path class="st4" d="M2536.4,880.3c0,0-140.1-104.5-134.5-242.5c-14.9,108.7-53.6,314.6-53.6,314.6s67.9-86.4,165.1-50.5
		L2536.4,880.3z"/>
	<path class="st4" d="M2397.4,637.9l-59.8,314.6c0,0-76-48.1-121,17.8C2284.5,844.8,2397.4,637.9,2397.4,637.9z"/>
	<path class="st4" d="M2206.1,970.2c0,0-29-127.6-144.2-50.2c22-34.5,64.5-145.3,330.2-282.2
		C2269.9,841.7,2206.1,970.2,2206.1,970.2z"/>
	<path class="st4" d="M3632.7,637.9l59.8,314.6c0,0,76.1-48.1,121,17.8C3745.6,844.8,3632.7,637.9,3632.7,637.9z"/>
	<path class="st4" d="M3824,970.2c0,0,29-127.6,144.2-50.2c-21.9-34.5-64.5-145.3-330.2-282.2C3760.3,841.7,3824,970.2,3824,970.2z"
		/>
	<path class="st5" d="M3545.4,1010.3c0.2,111-34.7,219.3-99.7,309.4c-12,11-24.5,21.5-37.6,31.4c64.9-90,99.8-198.3,99.6-309.3
		c0-292.5-237.1-529.7-529.7-529.7C2862.5,512,2750,549.8,2658,619.8c0-0.1,0.1-0.1,0.1-0.2c97.5-89.6,225.2-139.2,357.6-139
		C3308.3,480.6,3545.4,717.8,3545.4,1010.3z"/>
	<path class="st6" d="M3445.7,1319.7c-96.2,133.4-252.9,220.3-430,220.3c-292.5,0-529.7-237.1-529.7-529.7
		c0-154.7,66.3-293.9,172-390.7c-65,90.1-99.8,198.3-99.6,309.4c0,292.5,237.1,529.7,529.7,529.7
		C3220.5,1458.8,3348.2,1409.2,3445.7,1319.7z"/>
	<path class="st7" d="M3507.8,1041.8c0.2,111-34.7,219.2-99.6,309.3c-92,70-204.5,107.8-320.1,107.6
		c-292.5,0-529.7-237.1-529.7-529.7c-0.2-111,34.7-219.2,99.6-309.2c92-70,204.5-107.8,320.1-107.7
		C3270.6,512.1,3507.8,749.3,3507.8,1041.8z"/>
	<circle class="st8" cx="3015.8" cy="901.9" r="233.5"/>
	<circle class="st9" cx="3015.8" cy="901.9" r="143.5"/>
	<circle class="st8" cx="3056.5" cy="861.7" r="49.8"/>
	<path class="st9" d="M3217.5,1255.1c-8,10.7-17,20.5-26.8,29.5c-9.6,8.7-20,16.7-30.9,23.7c-40,25.7-89.9,40.9-144,40.9
		s-104-15.2-144-40.9c-11-7-21.3-14.9-30.9-23.7c-9.9-9-18.8-18.8-26.8-29.5c-9.8-13.1,7.7-26.4,26.2-24c3.3,0.4,6.5,1.3,9.6,2.7
		c21.3,9.7,43.6,17.3,66.4,22.7c65.5,15.4,133.7,15.4,199.2,0c22.8-5.4,45-13,66.4-22.7c3-1.4,6.3-2.3,9.6-2.7
		C3209.8,1228.7,3227.4,1242,3217.5,1255.1z"/>
	<path class="st8" d="M2916.1,1256.6c-9.4,12.8-28.4,38.5-44.4,51.7c-7.2,5.9-13.7,9.3-18.5,8c-7.2-2-10.7-15.6-12.4-31.6
		c-2-19.6-1.2-42.8-0.6-53.5c3.3,0.4,6.5,1.3,9.6,2.7C2871.1,1243.5,2893.3,1251.1,2916.1,1256.6z"/>
	<path class="st8" d="M3190.7,1284.6c-1.7,16.1-5.2,29.6-12.4,31.6c-4.8,1.4-11.4-2-18.5-8c-16-13.2-35.1-38.9-44.4-51.7
		c22.8-5.4,45-13,66.4-22.7c3-1.4,6.3-2.3,9.6-2.7C3191.9,1241.8,3192.7,1265.1,3190.7,1284.6z"/>
	<path class="st7" d="M2906.1,514.8c0,0-30.8-64.9,0-54.1c22.1,7.8,45.8,39.3,47.2,33s-11.1-101.7,25.1-81.5s20.2,79.4,31.4,59.9
		s33.4-80.9,51.6-62.7s-13.9,75.3,0,65.5s65.5-38.3,76.6-9.8s-54.4,44.5-59.2,52.2S2906.1,514.8,2906.1,514.8z"/>
	<path class="st10" d="M3100.2,1336.1c-3.4,1.2-6.8,2.3-10.2,3.3c-22.6-26.8-90.4-61.2-156.5-2.6l0,0
		C3004.9,1265.5,3080.3,1308.1,3100.2,1336.1z"/>
	<path class="st11" d="M3090,1339.4c-81.1,23.9-154.5-1.9-156.5-2.6C2999.6,1278.2,3067.3,1312.6,3090,1339.4z"/>
	<path class="st6" d="M2829.6,1553c-95.9,118.9-186.8,57.9-214-36.1c-1.3-4.4-2.4-8.8-3.5-13.2c34.5-25.1,84-33.2,132.3-17.4
		C2782.4,1498.7,2812.2,1523.3,2829.6,1553z"/>
	<path class="st6" d="M3418,1509.2c-0.6,2.6-1.4,5.2-2.1,7.8c-25.4,87.4-105.8,146.3-194.1,58.3c0.3-1.2,0.7-2.3,1.1-3.5
		c20.8-64,98-96.2,172.4-71.9C3403,1502.4,3410.7,1505.5,3418,1509.2z"/>
	<path class="st6" d="M2464.2,1237c0,40.7-3.1,78.9-8.7,112.4c-24.1,8.7-48.3,9.1-72-2.2c-90.5-42.9-25.3-203.8,39.8-323.5
		C2447.5,1062.6,2464.2,1143.5,2464.2,1237z"/>
	<path class="st6" d="M3648.1,1347.2c-17.1,8.2-36.4,10.6-54.9,6.9c-6.1-34.6-9.5-74.5-9.5-117.1c0-82.6,13-155.4,32.8-198.1
		C3678.6,1156.6,3734.8,1306.1,3648.1,1347.2z"/>
	<ellipse class="st5" cx="2410.4" cy="1245.6" rx="28.8" ry="55.8"/>
	<ellipse class="st5" cx="3628.3" cy="1245.6" rx="28.8" ry="55.8"/>
	
		<ellipse transform="matrix(0.8983 -0.4395 0.4395 0.8983 -345.2975 1620.3876)" class="st5" cx="3326.9" cy="1555.9" rx="55.9" ry="28.8"/>
	
		<ellipse transform="matrix(0.4395 -0.8983 0.8983 0.4395 134.3894 3304.5803)" class="st5" cx="2715" cy="1544.6" rx="28.8" ry="55.8"/>
</g>
</svg>
