<?xml version="1.0" encoding="UTF-8" standalone="no"?>
<svg
   xmlns:dc="http://purl.org/dc/elements/1.1/"
   xmlns:cc="http://creativecommons.org/ns#"
   xmlns:rdf="http://www.w3.org/1999/02/22-rdf-syntax-ns#"
   xmlns:svg="http://www.w3.org/2000/svg"
   xmlns="http://www.w3.org/2000/svg"
   xmlns:sodipodi="http://sodipodi.sourceforge.net/DTD/sodipodi-0.dtd"
   xmlns:inkscape="http://www.inkscape.org/namespaces/inkscape"
   version="1.1"
   id="svg2"
   xml:space="preserve"
   width="666.66669"
   height="666.66669"
   viewBox="0 0 666.66669 666.66669"
   sodipodi:docname="open-2389230.ai"><metadata
     id="metadata8"><rdf:RDF><cc:Work
         rdf:about=""><dc:format>image/svg+xml</dc:format><dc:type
           rdf:resource="http://purl.org/dc/dcmitype/StillImage" /></cc:Work></rdf:RDF></metadata><defs
     id="defs6"><clipPath
       clipPathUnits="userSpaceOnUse"
       id="clipPath20"><path
         d="M 0,500 H 500 V 0 H 0 Z"
         id="path18" /></clipPath></defs><sodipodi:namedview
     pagecolor="#ffffff"
     bordercolor="#666666"
     borderopacity="1"
     objecttolerance="10"
     gridtolerance="10"
     guidetolerance="10"
     inkscape:pageopacity="0"
     inkscape:pageshadow="2"
     inkscape:window-width="640"
     inkscape:window-height="480"
     id="namedview4" /><g
     id="g10"
     inkscape:groupmode="layer"
     inkscape:label="open-2389230"
     transform="matrix(1.3333333,0,0,-1.3333333,0,666.66667)"><path
       d="M 1,0 H 500 V 499 H 1 Z"
       style="fill:#ffffff;fill-opacity:1;fill-rule:nonzero;stroke:none"
       id="path12" /><g
       id="g14"><g
         id="g16"
         clip-path="url(#clipPath20)"><g
           id="g22"
           transform="translate(379,249)"><path
             d="m 0,0 c 0,-70.692 -57.308,-128 -128,-128 -70.692,0 -128,57.308 -128,128 0,70.692 57.308,128 128,128 C -57.308,128 0,70.692 0,0"
             style="fill:#31b5ab;fill-opacity:1;fill-rule:nonzero;stroke:none"
             id="path24" /></g><g
           id="g26"
           transform="translate(248.0825,297.5464)"><path
             d="m 0,0 c 1.342,-1.092 3.052,-1.749 4.917,-1.749 1.866,0 3.576,0.657 4.918,1.749 L 61.59,-43.117 H -51.755 Z M 73.666,-43.117 H 66.277 L 11.756,2.303 c 0.611,1.112 0.959,2.388 0.959,3.746 0,4.306 -3.491,7.797 -7.798,7.797 -4.306,0 -7.797,-3.491 -7.797,-7.797 0,-1.358 0.348,-2.634 0.959,-3.746 l -54.521,-45.42 h -7.389 c -2.75,0 -5,-2.25 -5,-5 v -63.748 c 0,-2.75 2.25,-5 5,-5 H 73.666 c 2.75,0 5,2.25 5,5 v 63.748 c 0,2.75 -2.25,5 -5,5"
             style="fill:#219184;fill-opacity:1;fill-rule:nonzero;stroke:none"
             id="path28" /></g><g
           id="g30"
           transform="translate(315.293,253.1523)"><path
             d="m 0,0 -64.333,53.595 -0.96,-1.152 -0.96,1.152 L -130.586,0 l 1.919,-2.305 63.374,52.796 63.373,-52.796 z"
             style="fill:#393f77;fill-opacity:1;fill-rule:nonzero;stroke:none"
             id="path32" /></g><g
           id="g34"
           transform="translate(318.748,182.6816)"><path
             d="m 0,0 h -137.496 c -2.75,0 -5,2.25 -5,5 v 63.748 c 0,2.75 2.25,5 5,5 L 0,73.748 c 2.75,0 5,-2.25 5,-5 V 5 C 5,2.25 2.75,0 0,0"
             style="fill:#ef5643;fill-opacity:1;fill-rule:nonzero;stroke:none"
             id="path36" /></g><g
           id="g38"
           transform="translate(257.7979,305.5952)"><path
             d="m 0,0 c 0,-4.307 -3.491,-7.798 -7.798,-7.798 -4.306,0 -7.797,3.491 -7.797,7.798 0,4.307 3.491,7.797 7.797,7.797 C -3.491,7.797 0,4.307 0,0"
             style="fill:#decdc0;fill-opacity:1;fill-rule:nonzero;stroke:none"
             id="path40" /></g><g
           id="g42"
           transform="translate(199.7954,232.1064)"><path
             d="M 0,0 C -0.384,0.769 -0.624,1.44 -1.632,1.44 -2.64,1.44 -2.88,0.769 -3.264,0 l -4.32,-8.688 c -0.721,-1.393 -1.104,-2.305 -1.104,-3.889 0,-1.248 0.287,-2.112 0.815,-3.168 l 4.609,-9.121 c 0.336,-0.672 0.672,-1.44 1.632,-1.44 0.96,0 1.296,0.768 1.632,1.44 l 4.608,9.121 c 0.529,1.056 0.816,1.92 0.816,3.168 0,1.584 -0.383,2.496 -1.104,3.889 z m 8.977,-7.248 c 0.912,-1.872 1.248,-3.265 1.248,-5.329 0,-2.304 -0.624,-3.744 -1.584,-5.712 l -4.416,-8.833 c -1.153,-2.305 -3.073,-3.984 -5.857,-3.984 -2.785,0 -4.704,1.679 -5.857,3.984 l -4.416,8.833 c -0.96,1.968 -1.584,3.408 -1.584,5.712 0,2.064 0.336,3.457 1.248,5.329 l 4.801,9.553 c 1.151,2.256 3.12,3.936 5.808,3.936 2.688,0 4.656,-1.68 5.808,-3.936 z"
             style="fill:#ffffff;fill-opacity:1;fill-rule:nonzero;stroke:none"
             id="path44" /></g><g
           id="g46"
           transform="translate(225.666,219.9141)"><path
             d="m 0,0 h 10.657 c 2.832,0 3.456,0.72 3.456,3.456 v 6.721 c 0,2.736 -0.624,3.456 -3.456,3.456 H 0 Z m 0,-16.514 c 0,-1.536 -0.672,-2.4 -2.4,-2.4 -1.728,0 -2.401,0.864 -2.401,2.4 v 34.948 h 15.938 c 2.208,0 3.792,-0.337 5.521,-1.969 2.063,-1.92 2.256,-3.696 2.256,-6.288 v -6.53 c 0,-2.448 -0.193,-4.175 -1.969,-6.144 -1.872,-2.111 -3.84,-2.304 -6.432,-2.304 H 0 Z"
             style="fill:#ffffff;fill-opacity:1;fill-rule:nonzero;stroke:none"
             id="path48" /></g><g
           id="g50"
           transform="translate(276.7383,205.8008)"><path
             d="M 0,0 C 1.248,0 2.4,-0.673 2.4,-2.4 2.4,-4.129 1.248,-4.801 0,-4.801 H -21.313 V 32.547 H 0 c 1.248,0 2.4,-0.673 2.4,-2.401 0,-1.728 -1.152,-2.4 -2.4,-2.4 H -16.514 V 16.273 h 7.057 c 1.248,0 2.4,-0.672 2.4,-2.4 0,-1.728 -1.152,-2.4 -2.4,-2.4 h -7.057 V 0 Z"
             style="fill:#ffffff;fill-opacity:1;fill-rule:nonzero;stroke:none"
             id="path52" /></g><g
           id="g54"
           transform="translate(308.9453,235.8994)"><path
             d="M 0,0 C 0,1.536 0.673,2.399 2.4,2.399 4.129,2.399 4.801,1.536 4.801,0 v -34.947 h -6.337 l -12.528,28.802 v 0.048 h -0.097 v -26.402 c 0,-1.536 -0.672,-2.4 -2.401,-2.4 -1.727,0 -2.399,0.864 -2.399,2.4 V 2.448 h 6.336 L -0.096,-26.69 h -0.048 0.096 z"
             style="fill:#ffffff;fill-opacity:1;fill-rule:nonzero;stroke:none"
             id="path56" /></g></g></g></g></svg>
